<svg width="1855" height="500" viewBox="0 0 1855 500" fill="none" xmlns="http://www.w3.org/2000/svg">
<path d="M1825.1 246.333L1831.71 252.905C1831.81 253 1831.9 253 1832 253C1832.1 253 1832.19 253 1832.29 252.905L1838.9 246.333C1839 246.238 1839 246.143 1839 246.048C1839 245.952 1839 245.857 1838.9 245.762L1838.23 245.095C1838.14 245 1838.04 245 1837.95 245C1837.85 245 1837.75 245 1837.66 245.095L1832.1 250.619L1826.53 245.095C1826.44 245 1826.34 245 1826.25 245C1826.15 245 1826.05 245 1825.96 245.095L1825.29 245.762C1825.19 245.857 1825.19 245.952 1825.19 246.048C1824.9 246.143 1825 246.238 1825.1 246.333Z" fill="black"/>
<path d="M1810 0H0V500H1810V0Z" fill="white"/>
</svg>
